inDegrees=no
num_controls=7
num_derivatives=13
num_iterations=85
num_multipliers=7
num_parameters=0
num_slacks=7
num_states=26
objective=0.458584
objective_accelerations=0.022963
objective_balance=0.002072
objective_effort=0.012297
objective_height=0.218559
objective_ligament=0.202693
solver_duration=1037.988575
status=Solve_Succeeded
success=true
DataType=double
version=3
OpenSimVersion=4.5
endheader
time	/jointset/ground_pelvis/pelvis_tilt/value	/jointset/ground_pelvis/pelvis_tx/value	/jointset/ground_pelvis/pelvis_ty/value	/jointset/hip_l/hip_flexion_l/value	/jointset/hip_l/hip_adduction_l/value	/jointset/hip_l/hip_rotation_l/value	/jointset/back/lumbar_extension/value	/jointset/patellofemoral_l/patellar_flexion_l/value	/jointset/knee_l/knee_flexion_l/value	/jointset/knee_l/knee_adduction_l/value	/jointset/knee_l/knee_rotation_l/value	/jointset/ankle_l/ankle_angle_l/value	/jointset/subtalar_l/subtalar_angle_l/value	/jointset/ground_pelvis/pelvis_tilt/speed	/jointset/ground_pelvis/pelvis_tx/speed	/jointset/ground_pelvis/pelvis_ty/speed	/jointset/hip_l/hip_flexion_l/speed	/jointset/hip_l/hip_adduction_l/speed	/jointset/hip_l/hip_rotation_l/speed	/jointset/back/lumbar_extension/speed	/jointset/patellofemoral_l/patellar_flexion_l/speed	/jointset/knee_l/knee_flexion_l/speed	/jointset/knee_l/knee_adduction_l/speed	/jointset/knee_l/knee_rotation_l/speed	/jointset/ankle_l/ankle_angle_l/speed	/jointset/subtalar_l/subtalar_angle_l/speed	/forceset/tau_hip_flexion_l	/forceset/tau_hip_adduction_l	/forceset/tau_hip_rotation_l	/forceset/tau_knee_flexion_l	/forceset/tau_ankle_angle_l	/forceset/tau_subtalar_angle_l	/forceset/tau_lumbar_extension	lambda_cid13_p0	lambda_cid13_p1	lambda_cid13_p2	lambda_cid13_p3	lambda_cid13_p4	lambda_cid13_p5	lambda_cid14_p0	/jointset/ground_pelvis/pelvis_tilt/accel	/jointset/ground_pelvis/pelvis_tx/accel	/jointset/ground_pelvis/pelvis_ty/accel	/jointset/hip_l/hip_flexion_l/accel	/jointset/hip_l/hip_adduction_l/accel	/jointset/hip_l/hip_rotation_l/accel	/jointset/back/lumbar_extension/accel	/jointset/patellofemoral_l/patellar_flexion_l/accel	/jointset/knee_l/knee_flexion_l/accel	/jointset/knee_l/knee_adduction_l/accel	/jointset/knee_l/knee_rotation_l/accel	/jointset/ankle_l/ankle_angle_l/accel	/jointset/subtalar_l/subtalar_angle_l/accel	gamma_cid13_p0	gamma_cid13_p1	gamma_cid13_p2	gamma_cid13_p3	gamma_cid13_p4	gamma_cid13_p5	gamma_cid14_p0
1	0.04659183812294631	0.09373594537335556	0.9402296234904842	0.1325859032921545	-0.2108641698079281	-0.3627943114541329	-0.4102352880098933	0.1480973758970459	0.1480973758971428	-0.03190645019308069	-0.166196554649641	0.03276700449508526	0.1041810094591474	0.1203251888255118	0.03313337506362953	0.01869935671953851	-0.2553341138393665	0.0294345163777629	-0.0482308483034376	-0.00457534636897979	-0.1460068670273187	-0.1460068670273214	0.005775269299124537	0.0014591090024753	-0.005687917712830174	0.03027221847884523	-0.02433526590532234	0.08198322974788425	-0.007047312981593961	-0.08374134362020903	0.05712980436974784	-0.05935006912666959	0.1192752321907092	-31.83477466737254	26.80977885947542	0.4572462295791071	8.416103331673503	-703.1435857766173	-18.9027517025768	-20.34914156823587	0.1005625315121982	-0.0983198626637193	-0.006814981866450606	0.01565246533639241	-0.01146020845031791	0.02539680870354819	0.05739958304656164	0.01301755471750766	0.01301755471750758	-0.03263021957402806	-0.002283748631158747	-0.1135645732775451	-0.0614401393087595	1.029820070686905e-10	4.138132994019533e-10	-4.511933994353673e-10	5.297480205716391e-11	9.714397037184912e-10	1.938748173123706e-10	1.002461082520429e-10
1.01	0.04780009097365589	0.09406235100672133	0.9404162741709307	0.1300333986717731	-0.2105704117623698	-0.3632753291748096	-0.4102782067131558	0.1466379826074908	0.1466379826076019	-0.03185034896676339	-0.1661820713456463	0.03270443731590428	0.1044806384840041	0.1213209461979879	0.03214630254178199	0.01863031479524923	-0.2551575449632422	0.02931599454099935	-0.04797024191154463	-0.004009871335962803	-0.1458668319772702	-0.1458668319772271	0.00544466613926174	0.001438147350824542	-0.006825665416118814	0.0296521668173867	-0.02341849510527155	0.08170413752734348	-0.007033646716707836	-0.08373804928106784	0.05727164971097629	-0.05954355377760893	0.1187331236667255	-31.80634015187469	26.88504612878975	0.4495693043918187	8.411902049366011	-703.1277695497537	-18.92441073348745	-20.30828046905232	0.09841707059881979	-0.09911829767337402	-0.00701825715671272	0.0200488991444611	-0.01221296737118524	0.02676074228263251	0.05589990726014601	0.01524029320030173	0.01524029320839515	-0.03332177972373683	-0.001913135616743853	-0.1139019539954998	-0.06250064970854893	9.778780344631273e-11	4.417681304218758e-10	-4.449319690713645e-10	6.133235794469336e-11	1.131950375733435e-09	1.65044040871385e-10	1.015933005030809e-10
1.02	0.04901816834410334	0.09437884244473307	0.9406022205402644	0.1274829377002837	-0.2102778718944907	-0.3637536671939604	-0.4103155149773358	0.1451801384311904	0.1451801384313267	-0.0317975630551428	-0.1661677798106767	0.03263048824265741	0.1047740243982104	0.1222900927895384	0.0311505359928217	0.01855849449703997	-0.2549253840712218	0.02919088086109239	-0.04769490800567734	-0.003453258549881171	-0.1456970444051833	-0.1456970444050942	0.00511220635808947	0.001420755211792387	-0.007964296525071125	0.0290235963501626	-0.02250172430432928	0.08142504530653119	-0.007019980451042274	-0.08373475494107691	0.057413495052444	-0.05973703842875207	0.1181910151431141	-31.77810578633182	26.96016311805031	0.4421280253563779	8.414074660750295	-703.1115676704704	-18.94630955338002	-20.26721518724085	0.09524037532845768	-0.1000586680872619	-0.00737065665040567	0.02677086851575292	-0.01277857707880336	0.028342311498798	0.05562713366033482	0.01896805912504346	0.01896805912504379	-0.03300154383561401	-0.001569846107077237	-0.1137412544114744	-0.06314390046216822	1.091034563396586e-10	5.025799163565635e-10	-4.496613031231424e-10	5.384052198778854e-11	1.313132093617102e-09	2.163345109526136e-10	1.016134403405529e-10
1.03	0.05024580809724636	0.09468533478039813	0.9407874357656201	0.124935064535043	-0.2099866146667555	-0.3642291874832639	-0.4103473050206896	0.14372413213692	0.1437241321370074	-0.03174811079162363	-0.1661536506291995	0.03254514767142591	0.1050610834743063	0.123233334264891	0.03014665131788814	0.01848410426717188	-0.2546401213745312	0.02905950972883211	-0.04740746526378364	-0.002906094327940385	-0.1454993285254807	-0.1454993285254337	0.004778064280128945	0.00140499134134549	-0.009103771509736357	0.02838694856164921	-0.02156011781376959	0.08112210496835459	-0.007005454664870341	-0.0837859146261261	0.05763269623461863	-0.05993802310975424	0.1176327841926859	-31.72571824475629	27.03628810492126	0.4322646567696841	8.403720131448221	-703.0974190767191	-18.97078508533676	-20.22595362151989	0.09318748554765748	-0.100745333716014	-0.007539852166150363	0.03077311627175704	-0.01347470686917952	0.02919804848537958	0.05405943699321653	0.02090621886994855	0.02090621886496066	-0.03364777364900992	-0.001593217606312722	-0.1140436756953003	-0.06411580167220574	1.205875771566344e-10	5.637269773414021e-10	-4.545027878322244e-10	4.61869575426751e-11	1.494524740540246e-09	2.684425447738652e-10	1.01620038826866e-10
1.04	0.05148274455544261	0.09498174987602033	0.9409718937594929	0.1223903178259953	-0.2096967028155611	-0.3647017827865247	-0.4103736637477368	0.1422702495748127	0.1422702495749384	-0.03170200539563792	-0.1661396817985626	0.03244841373930242	0.1053417379557846	0.1241494338163694	0.02913508798424937	0.0184070482005064	-0.2543000928366445	0.0289218055739112	-0.04710991080391786	-0.002366995284889781	-0.1452722979867334	-0.1452722979867285	0.004442832847201485	0.00138868506719773	-0.01024296870247341	0.02774267742808702	-0.02061851132257694	0.08081916462995149	-0.006990928877446167	-0.08383707431052646	0.05785189741695983	-0.06013900779094821	0.1170745532424904	-31.67349448383917	27.11226815581364	0.4226227036787757	8.399705470089231	-703.0823909238757	-18.99535813119444	-20.18450502482447	0.08981199055477877	-0.101594399829126	-0.007903824009840934	0.03772403675502407	-0.01404518161073547	0.0303646550936119	0.05401409788306987	0.02483099093374148	0.02483099093374128	-0.03321941482872829	-0.001678326846834258	-0.1136856960268696	-0.06466856947216247	1.257419289526086e-10	6.136623683761683e-10	-4.386670018098879e-10	4.686848118374004e-11	1.654346153245251e-09	2.801204944608097e-10	1.048373257805276e-10
1.05	0.05272870850898471	0.0952680129763646	0.9411555686695247	0.1198492331252008	-0.2094082010373839	-0.3651713502416103	-0.4103946718647516	0.140818773088171	0.1408187730881686	-0.03165926486920004	-0.1661258749597466	0.03234028619053724	0.105615908888482	0.1250385811706485	0.02811642278115325	0.01832749430775185	-0.2539079187455225	0.02877725283378546	-0.04680154353097318	-0.001835498358147711	-0.1450184056187636	-0.1450184056187324	0.004104477491305956	0.001372939981896331	-0.01138253293433765	0.02708996380263484	-0.01965564572742827	0.08049338813004156	-0.006975438131218332	-0.08393834264968242	0.0581419389368764	-0.06034604025041993	0.1165029824064455	-31.59920663878858	27.18882634262624	0.4108155868895543	8.384724485414161	-703.0706532225335	-19.02306171759258	-20.14287850348027	0.08774972964938178	-0.1021689683634878	-0.008046732296060771	0.0413033853207638	-0.01485501062617633	0.03137836801732444	0.05258695557122309	0.02635739713499203	0.02635739714037984	-0.0342627407196647	-0.001484100945182583	-0.1140905537709061	-0.0658046127606743	1.306984754666766e-10	6.632473947249948e-10	-4.221850510771947e-10	4.781047632749799e-11	1.813493464880938e-09	2.905350040185572e-10	1.081549467487938e-10
